# xmcd
#
# Track frame offsets: 
#        150
#        17174
#        32399
#        54008
#        74672
#        85421
#        102780
#        114904
#        131329
#        147053
#        161027
#
# Disc length: 2395 seconds
#
# Revision: 1
# Processed by: cddbd v1.5.2PL0 Copyright (c) Steve Scherf et al.
# Submitted via: ExactAudioCopy v0.95a3
#
DISCID=8509590b
DTITLE=Михаил Круг - Осенний дождь
DYEAR=2008
DGENRE=Chanson
TTITLE0=Вступление: А. Фрумин
TTITLE1=Жиган-Лимон
TTITLE2=Не спалила - любила
TTITLE3=Осенний дождь
TTITLE4=Мамины подружки (акустика)
TTITLE5=Я жду тебя, когда ты уезжала (акустика)
TTITLE6=У каких ворот (акустика)
TTITLE7=День как день (акустика)
TTITLE8=Светочка (акустика)
TTITLE9=Фрайер (акустика)
TTITLE10=Не спалила - любила (акустика)
EXTD=
EXTT0=
EXTT1=
EXTT2=
EXTT3=
EXTT4=
EXTT5=
EXTT6=
EXTT7=
EXTT8=
EXTT9=
EXTT10=
PLAYORDER=
